<?xml version="1.0" encoding="UTF-8" standalone="no"?>
<!DOCTYPE svg PUBLIC "-//W3C//DTD SVG 1.1//EN" "http://www.w3.org/Graphics/SVG/1.1/DTD/svg11.dtd">
<svg width="100%" height="100%" viewBox="0 0 800 308" version="1.1" xmlns="http://www.w3.org/2000/svg" xmlns:xlink="http://www.w3.org/1999/xlink" xml:space="preserve" xmlns:serif="http://www.serif.com/" style="fill-rule:evenodd;clip-rule:evenodd;stroke-linejoin:round;stroke-miterlimit:2;">
    <g transform="matrix(1.40245,0,0,1.40245,288.646,181.976)">
        <path d="M0,-42.135L-3.979,-42.137C-5.109,-42.138 -5.673,-41.573 -5.674,-40.445L-5.686,-20.125C-5.688,-16.116 -6.735,-12.886 -8.824,-10.432C-10.915,-7.978 -13.682,-6.752 -17.124,-6.754C-20.172,-6.756 -22.626,-7.843 -24.488,-10.018C-26.35,-12.192 -27.278,-15.057 -27.277,-18.614L-27.264,-40.457C-27.264,-41.586 -27.828,-42.152 -28.956,-42.152L-32.936,-42.154C-34.065,-42.155 -34.629,-41.59 -34.63,-40.461L-34.645,-16.077C-34.647,-11.222 -33.225,-7.327 -30.375,-4.391C-27.527,-1.454 -23.788,0.015 -19.159,0.018C-16.056,0.02 -13.275,-0.727 -10.819,-2.221C-8.362,-3.715 -6.71,-5.675 -5.862,-8.102L-5.693,-8.102L-4.765,-2.429C-4.597,-1.413 -4.004,-0.904 -2.987,-0.904L-0.024,-0.902C1.104,-0.901 1.669,-1.465 1.67,-2.594L1.691,-40.44C1.692,-41.569 1.128,-42.134 0,-42.135" style="fill:rgb(1,86,68);fill-rule:nonzero;"/>
    </g>
    <g transform="matrix(1.40245,0,0,1.40245,328.876,108.009)">
        <path d="M0,44.663L-5.249,44.66C-6.379,44.659 -7.281,44.334 -7.958,43.684C-8.635,43.036 -8.973,42.146 -8.972,41.017L-8.943,-5.331C-8.942,-6.46 -9.508,-7.025 -10.636,-7.025L-14.615,-7.027C-15.745,-7.028 -16.309,-6.464 -16.31,-5.336L-16.338,41.097C-16.341,44.371 -15.383,46.954 -13.464,48.846C-11.547,50.739 -8.923,51.684 -5.592,51.686L-0.004,51.69C1.124,51.691 1.689,51.127 1.69,49.997L1.692,46.357C1.693,45.228 1.129,44.663 0,44.663" style="fill:rgb(1,86,68);fill-rule:nonzero;"/>
    </g>
    <g transform="matrix(1.40245,0,0,1.40245,369.47,162.459)">
        <path d="M0,-28.185L-10.837,-28.191L-10.83,-39.537C-10.829,-40.665 -11.394,-41.23 -12.522,-41.231L-16.502,-41.233C-17.632,-41.234 -18.195,-40.669 -18.196,-39.541L-18.203,-28.196L-26.246,-28.201C-27.376,-28.201 -27.94,-27.637 -27.94,-26.508L-27.942,-23.46C-27.943,-22.33 -27.38,-21.766 -26.25,-21.766L-18.207,-21.761L-18.221,2.454C-18.223,5.785 -17.279,8.381 -15.39,10.245C-13.5,12.109 -10.89,13.041 -7.559,13.044L-0.023,13.048C1.104,13.049 1.67,12.485 1.67,11.356L1.673,7.969C1.673,6.84 1.108,6.275 -0.02,6.274L-6.539,6.271C-7.894,6.27 -8.952,5.917 -9.714,5.21C-10.476,4.505 -10.855,3.559 -10.855,2.374L-10.841,-21.757L-0.003,-21.75C1.125,-21.749 1.69,-22.313 1.69,-23.442L1.692,-26.491C1.693,-27.62 1.129,-28.184 0,-28.185" style="fill:rgb(1,86,68);fill-rule:nonzero;"/>
    </g>
    <g transform="matrix(1.40245,0,0,1.40245,390.313,180.767)">
        <path d="M0,-41.23L-3.979,-41.232C-5.108,-41.233 -5.673,-40.668 -5.674,-39.54L-5.695,-1.694C-5.696,-0.564 -5.133,-0.001 -4.003,0L-0.024,0.002C1.104,0.003 1.67,-0.56 1.671,-1.69L1.692,-39.536C1.693,-40.665 1.129,-41.23 0,-41.23" style="fill:rgb(1,86,68);fill-rule:nonzero;"/>
    </g>
    <g transform="matrix(1.40245,0,0,1.40245,456.03,180.766)">
        <path d="M0,-41.203L-4.741,-41.205C-5.702,-41.206 -6.351,-40.754 -6.689,-39.852L-18.562,-7.178L-30.481,-39.866C-30.819,-40.768 -31.469,-41.221 -32.428,-41.222L-37.254,-41.224C-38.27,-41.225 -38.777,-40.857 -38.778,-40.124C-38.778,-39.899 -38.723,-39.617 -38.609,-39.278L-23.815,-1.339C-23.478,-0.434 -22.829,0.017 -21.868,0.017L-15.35,0.021C-14.391,0.022 -13.74,-0.429 -13.401,-1.332L1.354,-39.254C1.466,-39.594 1.522,-39.875 1.522,-40.101C1.523,-40.833 1.016,-41.202 0,-41.203" style="fill:rgb(1,86,68);fill-rule:nonzero;"/>
    </g>
    <g transform="matrix(1.40245,0,0,1.40245,501.456,146.739)">
        <path d="M0,7.378C-0.002,11.048 -1.147,13.996 -3.435,16.224C-5.722,18.453 -8.757,19.565 -12.538,19.563C-15.135,19.562 -17.209,18.968 -18.76,17.781C-20.312,16.595 -21.087,15.043 -21.086,13.123C-21.085,11.486 -20.421,10.076 -19.094,8.891C-17.768,7.707 -16.002,6.946 -13.801,6.608L0.001,4.499L0,7.378ZM9.73,17.882L9.646,17.882C8.122,17.881 7.36,17.064 7.361,15.426L7.372,-3.455C7.375,-7.857 5.895,-11.357 2.934,-13.956C-0.028,-16.553 -4.05,-17.854 -9.129,-17.858C-13.42,-17.86 -17.089,-16.847 -20.138,-14.816C-23.187,-12.786 -25.221,-10.021 -26.238,-6.522C-26.296,-6.296 -26.323,-6.07 -26.324,-5.845C-26.324,-5.168 -25.873,-4.715 -24.97,-4.49L-21.753,-3.726C-21.584,-3.669 -21.414,-3.641 -21.245,-3.641C-20.567,-3.641 -20.089,-4.064 -19.805,-4.91C-19.126,-6.997 -17.843,-8.647 -15.95,-9.861C-14.059,-11.073 -11.814,-11.679 -9.218,-11.677C-6.453,-11.676 -4.223,-10.94 -2.53,-9.472C-0.838,-8.003 0.008,-6.112 0.006,-3.798L0.006,-3.713C0.006,-2.753 -0.277,-1.949 -0.842,-1.301C-1.407,-0.651 -2.197,-0.243 -3.213,-0.074L-16.168,1.95C-19.951,2.569 -22.943,3.893 -25.146,5.924C-27.348,7.955 -28.45,10.439 -28.452,13.373C-28.454,16.986 -27.173,19.865 -24.604,22.011C-22.038,24.159 -18.582,25.232 -14.235,25.234C-7.687,25.238 -2.889,23.012 0.162,18.554C0.443,20.361 1.232,21.773 2.53,22.789C3.828,23.806 5.493,24.315 7.525,24.316L9.727,24.317C10.854,24.318 11.42,23.755 11.421,22.625L11.423,19.577C11.423,18.448 10.858,17.883 9.73,17.882" style="fill:rgb(1,86,68);fill-rule:nonzero;"/>
    </g>
    <g transform="matrix(1.40245,0,0,1.40245,558.397,162.568)">
        <path d="M0,-28.184L-10.837,-28.19L-10.83,-39.536C-10.829,-40.664 -11.395,-41.229 -12.522,-41.229L-16.502,-41.232C-17.632,-41.233 -18.195,-40.668 -18.196,-39.54L-18.203,-28.195L-26.246,-28.199C-27.376,-28.2 -27.94,-27.635 -27.94,-26.507L-27.942,-23.458C-27.943,-22.329 -27.38,-21.766 -26.25,-21.765L-18.207,-21.76L-18.221,2.455C-18.223,5.786 -17.28,8.382 -15.39,10.246C-13.5,12.109 -10.89,13.043 -7.56,13.045L-0.023,13.049C1.104,13.049 1.67,12.486 1.67,11.357L1.673,7.97C1.673,6.841 1.108,6.276 -0.02,6.276L-6.539,6.272C-7.894,6.271 -8.952,5.919 -9.714,5.212C-10.476,4.506 -10.855,3.56 -10.855,2.375L-10.841,-21.755L-0.003,-21.749C1.125,-21.748 1.69,-22.312 1.69,-23.441L1.692,-26.489C1.693,-27.618 1.129,-28.184 0,-28.184" style="fill:rgb(1,86,68);fill-rule:nonzero;"/>
    </g>
    <g transform="matrix(1.40245,0,0,1.40245,576.983,155.014)">
        <path d="M0,-4.332C0.396,-8.339 1.753,-11.513 4.069,-13.855C6.385,-16.195 9.376,-17.365 13.046,-17.363C16.827,-17.361 19.846,-16.187 22.104,-13.844C24.358,-11.5 25.542,-8.324 25.653,-4.317L0,-4.332ZM13.22,-23.713C7.123,-23.717 2.211,-21.744 -1.517,-17.795C-5.244,-13.845 -7.109,-8.654 -7.113,-2.22C-7.117,4.272 -5.23,9.495 -1.45,13.447C2.328,17.4 7.322,19.379 13.532,19.382C17.37,19.385 20.87,18.427 24.032,16.51C27.194,14.594 29.566,11.999 31.149,8.725C31.262,8.443 31.319,8.189 31.319,7.963C31.319,7.399 30.952,6.947 30.22,6.608L27.426,5.421C27.143,5.308 26.889,5.251 26.664,5.251C26.042,5.251 25.563,5.589 25.224,6.266C24.15,8.355 22.583,10.004 20.522,11.216C18.46,12.43 16.132,13.034 13.536,13.033C9.754,13.03 6.679,11.9 4.31,9.64C1.939,7.382 0.53,4.304 0.081,0.409L31.069,0.428C32.198,0.428 32.763,-0.135 32.764,-1.265L32.765,-2.958C32.769,-9.166 30.979,-14.177 27.397,-17.99C23.814,-21.802 19.089,-23.709 13.22,-23.713" style="fill:rgb(1,86,68);fill-rule:nonzero;"/>
    </g>
    <g transform="matrix(1.40245,0,0,1.40245,720.079,180.914)">
        <path d="M0,-58.977L-7.45,-58.982C-8.467,-58.982 -9.116,-58.56 -9.398,-57.713L-29.578,-9.38L-49.785,-57.737C-50.067,-58.583 -50.716,-59.007 -51.731,-59.008L-59.182,-59.013C-60.312,-59.013 -60.876,-58.449 -60.876,-57.32L-60.909,-1.694C-60.91,-0.564 -60.347,0 -59.217,0.001L-54.645,0.003C-53.517,0.004 -52.951,-0.56 -52.95,-1.689L-52.924,-47.409L-34.07,-1.339C-33.731,-0.435 -33.084,0.016 -32.123,0.016L-27.213,0.019C-26.254,0.02 -25.604,-0.431 -25.265,-1.334L-6.272,-47.551L-6.299,-1.661C-6.3,-0.532 -5.736,0.032 -4.606,0.033L-0.034,0.036C1.094,0.036 1.659,-0.527 1.659,-1.657L1.692,-57.283C1.693,-58.412 1.129,-58.977 0,-58.977" style="fill:rgb(1,86,68);fill-rule:nonzero;"/>
    </g>
    <g transform="matrix(1.40245,0,0,1.40245,744.327,155.114)">
        <path d="M0,-4.333C0.396,-8.34 1.753,-11.514 4.069,-13.856C6.385,-16.196 9.377,-17.366 13.047,-17.364C16.827,-17.362 19.847,-16.187 22.104,-13.845C24.359,-11.5 25.543,-8.325 25.654,-4.318L0,-4.333ZM27.397,-17.99C23.815,-21.803 19.09,-23.71 13.22,-23.714C7.124,-23.717 2.212,-21.744 -1.516,-17.796C-5.243,-13.846 -7.109,-8.655 -7.113,-2.221C-7.117,4.271 -5.229,9.494 -1.449,13.446C2.329,17.4 7.323,19.378 13.533,19.382C17.371,19.384 20.87,18.427 24.033,16.509C27.195,14.593 29.567,11.998 31.15,8.724C31.263,8.442 31.319,8.188 31.319,7.962C31.32,7.398 30.952,6.946 30.22,6.607L27.427,5.42C27.144,5.308 26.89,5.25 26.665,5.25C26.043,5.25 25.563,5.588 25.225,6.265C24.15,8.354 22.583,10.004 20.522,11.216C18.461,12.429 16.133,13.033 13.536,13.032C9.755,13.03 6.68,11.899 4.31,9.639C1.94,7.381 0.531,4.303 0.082,0.409L31.07,0.427C32.198,0.427 32.764,-0.136 32.765,-1.266L32.766,-2.959C32.769,-9.167 30.979,-14.178 27.397,-17.99" style="fill:rgb(1,86,68);fill-rule:nonzero;"/>
    </g>
    <g transform="matrix(1.40245,0,0,1.40245,387.58,114.263)">
        <path d="M0,-9.125C-1.398,-9.125 -2.517,-8.706 -3.356,-7.866C-4.195,-6.992 -4.615,-5.855 -4.615,-4.457C-4.615,-3.128 -4.195,-2.053 -3.356,-1.232C-2.517,-0.41 -1.398,0 0,0C1.363,0 2.456,-0.41 3.278,-1.232C4.1,-2.053 4.51,-3.128 4.51,-4.457C4.51,-5.855 4.1,-6.983 3.278,-7.84C2.456,-8.696 1.363,-9.125 0,-9.125" style="fill:rgb(1,86,68);fill-rule:nonzero;"/>
    </g>
    <g transform="matrix(1.40245,0,0,1.40245,96.5898,160.263)">
        <path d="M0,-29.856C7.048,-29.856 12.761,-40.493 12.761,-53.615C12.761,-66.736 7.048,-77.374 0,-77.374C-7.048,-77.374 -12.761,-66.736 -12.761,-53.615C-12.761,-49.052 -12.068,-44.791 -10.87,-41.172C-12.583,-44.578 -15.106,-48.08 -18.333,-51.307C-27.611,-60.585 -39.173,-64.067 -44.155,-59.084C-49.139,-54.101 -45.657,-42.539 -36.379,-33.261C-33.152,-30.034 -29.65,-27.511 -26.244,-25.798C-29.863,-26.996 -34.124,-27.689 -38.687,-27.689C-51.809,-27.689 -62.445,-21.976 -62.445,-14.928C-62.445,-7.881 -51.809,-2.168 -38.687,-2.168C-34.124,-2.168 -29.863,-2.86 -26.244,-4.057C-29.65,-2.345 -33.152,0.178 -36.379,3.405C-45.657,12.683 -49.139,24.244 -44.155,29.228C-39.173,34.211 -27.611,30.729 -18.333,21.451C-15.106,18.224 -12.583,14.722 -10.87,11.316C-12.068,14.935 -12.761,19.196 -12.761,23.759C-12.761,36.88 -7.048,47.518 0,47.518C7.048,47.518 12.761,36.88 12.761,23.759C12.761,10.637 7.048,0 0,0C-3.641,0 -6.923,2.844 -9.248,7.397C-7.671,2.534 -7.981,-1.798 -10.556,-4.373C-13.13,-6.947 -17.461,-7.257 -22.325,-5.681C-17.771,-8.005 -14.928,-11.287 -14.928,-14.928C-14.928,-18.569 -17.771,-21.851 -22.325,-24.175C-17.462,-22.6 -13.13,-22.909 -10.556,-25.484C-7.981,-28.058 -7.671,-32.39 -9.248,-37.253C-6.923,-32.7 -3.641,-29.856 0,-29.856" style="fill:rgb(1,86,68);fill-rule:nonzero;"/>
    </g>
    <g transform="matrix(1.40245,0,0,1.40245,192.296,171.326)">
        <path d="M0,-45.634C4.571,-45.632 8.578,-44.457 12.021,-42.113C15.461,-39.768 17.802,-36.649 19.042,-32.754C19.267,-31.907 19.719,-31.484 20.396,-31.483C20.621,-31.483 20.875,-31.538 21.158,-31.652L25.138,-33.174C25.985,-33.511 26.408,-34.019 26.409,-34.696C26.409,-34.866 26.38,-35.035 26.324,-35.205C24.859,-40.68 21.701,-45.057 16.85,-48.333C11.996,-51.609 6.297,-53.25 -0.25,-53.255C-9.056,-53.259 -16.141,-50.47 -21.506,-44.885C-26.929,-39.3 -29.642,-31.964 -29.647,-22.877C-29.652,-13.733 -26.962,-6.365 -21.574,-0.774C-16.188,4.817 -9.092,7.616 -0.286,7.621C6.318,7.625 12.034,5.977 16.862,2.679C21.69,-0.621 24.839,-5.035 26.311,-10.567C26.366,-10.736 26.395,-10.905 26.396,-11.074C26.396,-11.695 25.973,-12.176 25.126,-12.515L21.147,-13.956C20.864,-14.012 20.64,-14.042 20.47,-14.042C19.793,-14.042 19.312,-13.647 19.03,-12.857C17.786,-8.963 15.441,-5.845 11.997,-3.506C8.553,-1.164 4.545,0.004 -0.027,0.001C-6.406,-0.003 -11.541,-2.108 -15.433,-6.316C-19.325,-10.522 -21.27,-16.041 -21.266,-22.871C-21.262,-29.7 -19.311,-35.202 -15.413,-39.378C-11.517,-43.552 -6.38,-45.638 0,-45.634" style="fill:rgb(1,86,68);fill-rule:nonzero;"/>
    </g>
</svg>
