<?xml version="1.0" encoding="utf-8"?>
<!-- Generator: Adobe Illustrator 16.0.0, SVG Export Plug-In . SVG Version: 6.00 Build 0)  -->
<!DOCTYPE svg PUBLIC "-//W3C//DTD SVG 1.1//EN" "http://www.w3.org/Graphics/SVG/1.1/DTD/svg11.dtd">
<svg version="1.1" id="Layer_1" xmlns="http://www.w3.org/2000/svg" xmlns:xlink="http://www.w3.org/1999/xlink" x="0px" y="0px"
	 width="832px" height="308px" viewBox="0 0 832 308" enable-background="new 0 0 832 308" xml:space="preserve">
<g>
	<path opacity="0.7559" fill="#488C13" enable-background="new    " d="M668,82.998c4.423,0,8.781,0.441,13.032,1.436
		l-12.757,55.763L668,82.998L668,82.998z"/>
	<path opacity="0.7559" fill="#509B21" enable-background="new    " d="M668,28.147c8.385,0,16.837,0.937,25.064,2.766
		l-12.032,53.323c-4.251-0.995-8.609-1.435-13.032-1.435V28.147z"/>
	<path opacity="0.7714" fill="#1B55C0" enable-background="new    " d="M681.928,80.404c27.645,6.241,47.733,30.034,49.405,58.345
		l-63.058,1.344L681.928,80.404z"/>
	<path opacity="0.8333" fill="#215ED5" enable-background="new    " d="M698.646,6.184c10.044,2.259,19.852,5.629,29.146,10.038
		L695.17,84.906c-4.198-2.001-8.622-3.601-13.255-4.592L698.646,6.184z"/>
	<path opacity="0.875" fill="#215ED5" enable-background="new    " d="M732.702,5.836c6.728,3.206,13.178,6.845,19.378,10.998
		L703.347,89.52c-2.594-1.762-5.318-3.316-8.177-4.625L732.702,5.836z"/>
	<path opacity="0.8889" fill="#215ED5" enable-background="new    " d="M754.291,13.688c1.594,1.047,3.094,2.199,4.635,3.26
		l-53.605,73.91c-0.711-0.447-1.369-0.941-2.001-1.33L754.291,13.688z"/>
	<path opacity="0.7083" fill="#215ED5" enable-background="new    " d="M729.886,56.887c4.251,3.087,8.228,6.404,11.861,10.051
		l-29.356,29.931c-2.159-2.16-4.581-4.215-7.07-6.03L729.886,56.887z"/>
	<path opacity="0.8796" fill="#215ED5" enable-background="new    " d="M774.592,33.546c8.003,7.904,15.178,16.62,21.26,26.119
		l-74.575,48.127c-2.542-3.976-5.518-7.616-8.886-10.913L774.592,33.546z"/>
	<path opacity="0.7963" fill="#215ED5" enable-background="new    " d="M776.632,72.078c2.54,4.03,4.91,8.175,7.017,12.415
		l-58.949,29.441c-1.055-2.153-2.213-4.207-3.423-6.141L776.632,72.078z"/>
	<path opacity="0.6465" fill="#215ED5" enable-background="new    " d="M747.433,102.601c5.426,10.813,8.505,22.53,9.229,34.609
		l-25.328,1.433c-0.5-8.602-2.777-16.994-6.634-24.728L747.433,102.601z"/>
	<path opacity="0.8094" fill="#482355" enable-background="new    " d="M741.193,138.038c2.212,40.521-28.751,75.024-69.218,77.269
		c-7.558,0.453-15.284-0.219-22.748-2.362l19.048-72.959l0,0l0,0L741.193,138.038z"/>
	<path opacity="0.6944" fill="#502658" enable-background="new    " d="M779.619,135.945c0.172,2.751,0.225,5.521,0.172,8.28
		l-38.544-0.776c0-1.711,0-3.521-0.054-5.411L779.619,135.945z"/>
	<path opacity="0.6667" fill="#592A6C" enable-background="new    " d="M811.465,134.174c0.172,1.771,0.236,3.527,0.236,5.306
		l-31.896,0.613c0-1.391-0.079-2.824-0.186-4.135L811.465,134.174z"/>
	<path opacity="0.7222" fill="#592A6C" enable-background="new    " d="M827.143,139.19c0,1.943,0,3.923,0,5.904l-47.338-0.877
		c0-1.382,0-2.77,0-4.139L827.143,139.19z"/>
	<path opacity="0.8651" fill="#502658" enable-background="new    " d="M826.643,145.108c-0.274,13.683-2.315,27.324-6.002,40.455
		l-82.198-23.31c1.765-6.067,2.712-12.412,2.816-18.757L826.643,145.108z"/>
	<path opacity="0.7222" fill="#502658" enable-background="new    " d="M782.819,174.806c-0.436,1.48-0.883,2.811-1.277,4.227
		l-43.878-14.278c0.329-0.821,0.607-1.657,0.778-2.532L782.819,174.806z"/>
	<path opacity="0.8148" fill="#502658" enable-background="new    " d="M805.607,186.872c-1.594,5.047-3.527,10.05-5.728,15.04
		l-65.15-29.527c1.118-2.489,2.106-5.037,2.935-7.631L805.607,186.872z"/>
	<path opacity="0.75" fill="#502658" enable-background="new    " d="M783.584,194.513c-1.2,2.857-2.594,5.629-4.135,8.394
		l-47.076-25.737c0.817-1.554,1.646-3.139,2.356-4.805L783.584,194.513z"/>
	<path opacity="0.8611" fill="#502658" enable-background="new    " d="M806.331,217.531c-1.817,3.311-3.805,6.853-5.898,9.914
		l-70.824-45.544c0.936-1.526,1.818-3.081,2.765-4.713L806.331,217.531z"/>
	<path opacity="0.8472" fill="#502658" enable-background="new    " d="M797.114,225.475c-4.027,6.393-8.661,12.342-13.637,18.108
		l-60.384-53.11c2.382-2.64,4.475-5.641,6.515-8.571L797.114,225.475z"/>
	<path opacity="0.8333" fill="#502658" enable-background="new    " d="M780.567,240.931c-4.869,5.688-10.109,10.814-15.744,15.448
		l-49.446-58.337c2.701-2.219,5.28-4.733,7.717-7.569L780.567,240.931z"/>
	<path opacity="0.9074" fill="#502658" enable-background="new    " d="M778.066,272.229c-4.739,4.193-9.82,7.964-15.007,11.499
		l-54.146-80.716c2.2-1.555,4.425-3.188,6.464-4.97L778.066,272.229z"/>
	<path opacity="0.9074" fill="#502658" enable-background="new    " d="M763.06,283.714c-5.252,3.312-10.65,6.603-16.231,9.472
		l-44.984-86.101c2.371-1.191,4.741-2.521,7.069-4.073L763.06,283.714z"/>
	<path opacity="0.7639" fill="#502658" enable-background="new    " d="M728.385,257.939c-5.688,3.08-11.639,5.719-17.667,7.713
		l-18.759-54.256c3.368-1.203,6.687-2.546,9.885-4.33L728.385,257.939z"/>
	<path opacity="0.6944" fill="#502658" enable-background="new    " d="M704.544,247.775c-5.24,1.771-10.649,3.312-16.062,4.411
		l-7.081-38.039c3.594-0.539,7.081-1.541,10.558-2.765L704.544,247.775z"/>
	<path opacity="0.8667" fill="#502658" enable-background="new    " d="M697.211,298.491c-9.608,1.79-19.39,2.673-29.211,2.673
		v-85.635c4.476,0,9.017-0.441,13.427-1.382L697.211,298.491z"/>
	<path opacity="0.7302" fill="#502658" enable-background="new    " d="M668,263.658c-10.479,0-20.972-1.329-31.134-3.969
		l12.361-46.745c6.082,1.704,12.427,2.585,18.772,2.585V263.658z"/>
	<path opacity="0.7384" fill="#CC080E" enable-background="new    " d="M653.979,195.111c-20.865-5.462-36.742-22.958-40.217-44.218
		l54.513-10.908L653.979,195.111z"/>
	<path opacity="0.8111" fill="#CE2121" enable-background="new    " d="M636.22,262.119c-7.45-1.771-14.638-4.641-21.576-7.709
		l29.805-62.825c3.079,1.54,6.227,2.717,9.545,3.526L636.22,262.119z"/>
	<path opacity="0.7889" fill="#CE2121" enable-background="new    " d="M617.303,248.876c-6.581-3.094-12.873-6.846-18.718-11.06
		l37.135-51.247c2.767,1.862,5.688,3.673,8.729,5.047L617.303,248.876z"/>
	<path opacity="0.7222" fill="#CE2121" enable-background="new    " d="M609.128,223.252c-2.065-1.528-3.922-3.08-5.856-4.635
		l29.25-34.608c1.04,0.823,2.095,1.717,3.187,2.546L609.128,223.252z"/>
	<path opacity="0.7889" fill="#CE2121" enable-background="new    " d="M600.928,221.191c-1.476-1.344-1.396-1.02-2.884-2.548
		l32.978-35.953c0.554,0.383,1.001,0.81,1.5,1.318L600.928,221.191z"/>
	<path opacity="0.6778" fill="#CE2121" enable-background="new    " d="M608.456,207.435c-3.987-3.679-7.635-7.733-10.939-12.112
		l26.724-20.148c1.977,2.732,4.292,5.201,6.781,7.537L608.456,207.435z"/>
	<path opacity="0.6667" fill="#CE2121" enable-background="new    " d="M599.899,193.572c-1.289-1.653-2.434-3.378-3.593-5.141
		l25.618-16.554c0.658,1.144,1.541,2.211,2.315,3.296L599.899,193.572z"/>
	<path opacity="0.6667" fill="#CE2121" enable-background="new    " d="M596.294,188.432c-0.592-0.888-1.146-1.79-1.751-2.706
		l26.274-15.572c0.383,0.566,0.726,1.177,1.107,1.725L596.294,188.432z"/>
	<path opacity="0.6389" fill="#CE2121" enable-background="new    " d="M600.889,181.961c-0.989-1.586-1.817-3.37-2.766-5.062
		l20.826-10.302c0.525,1.238,1.197,2.443,1.868,3.62L600.889,181.961z"/>
	<path opacity="0.746" fill="#CE2121" enable-background="new    " d="M572.558,189.708c-4.066-8.281-7.109-17.021-8.978-26.052
		l50.723-10.446c0.934,4.653,2.475,9.122,4.646,13.362L572.558,189.708z"/>
	<path opacity="0.6111" fill="#CE2121" enable-background="new    " d="M598.794,156.428c-0.224-0.901-0.434-1.712-0.499-2.546
		l15.468-2.989c0.066,0.718,0.381,1.659,0.54,2.317L598.794,156.428z"/>
	<path opacity="0.7791" fill="#FB430F" enable-background="new    " d="M603.479,152.947c-5.738-34.227,16.234-66.96,50.119-74.614
		l14.677,61.652L603.479,152.947z"/>
	<path opacity="0.7222" fill="#FF5421" enable-background="new    " d="M558.392,160.575c-1.222-6.753-1.723-13.651-1.539-20.482
		l45.799,0.874c-0.158,3.976,0.132,8.003,0.843,11.974L558.392,160.575z"/>
	<path opacity="0.7407" fill="#FF5421" enable-background="new    " d="M551.812,139.985c0.118-4.317,0.408-8.503,0.935-12.814
		l50.393,6.569c-0.355,2.37-0.487,4.732-0.487,7.227L551.812,139.985z"/>
	<path opacity="0.8056" fill="#FF5421" enable-background="new    " d="M535.265,124.854c1.645-13.073,5.342-25.822,10.754-37.92
		l62.372,28.206c-2.645,5.91-4.408,12.204-5.252,18.608L535.265,124.854z"/>
	<path opacity="0.8611" fill="#FF5421" enable-background="new    " d="M532.117,80.623c4.528-10.098,10.15-19.589,16.771-28.371
		l66.888,50.452c-2.869,3.864-5.397,8.005-7.386,12.421L532.117,80.623z"/>
	<path opacity="0.7778" fill="#FF5421" enable-background="new    " d="M567.227,66.069c3.737-5.016,7.886-9.664,12.309-14.081
		l42.679,43.502c-2.316,2.257-4.488,4.64-6.423,7.234L567.227,66.069z"/>
	<path opacity="0.8704" fill="#FF5421" enable-background="new    " d="M561.698,33.883c8.016-7.9,16.823-14.857,26.394-20.754
		l45.484,73.41c-4.148,2.547-7.967,5.576-11.362,8.952L561.698,33.883z"/>
	<path opacity="0.6778" fill="#FF5421" enable-background="new    " d="M615.791,57.833c5.134-3.262,10.661-6.028,16.335-8.233
		l12.257,31.522c-3.804,1.481-7.451,3.258-10.821,5.405L615.791,57.833z"/>
	<path opacity="0.6944" fill="#FF5421" enable-background="new    " d="M630.521,45.46c4.7-1.805,9.677-3.292,14.691-4.457
		l8.387,37.314c-3.199,0.717-6.188,1.706-9.216,2.804L630.521,45.46z"/>
	<path opacity="0.7559" fill="#E9B104" enable-background="new    " d="M654.927,84.223c4.253-0.995,8.729-1.436,13.073-1.436
		l0.275,57.198L654.927,84.223z"/>
	<path opacity="0.7559" fill="#FFC421" enable-background="new    " d="M642.895,30.893c8.216-1.824,16.667-2.763,25.105-2.763
		v54.657c-4.345,0-8.82,0.441-13.073,1.436L642.895,30.893z"/>
</g>
<g enable-background="new    ">
	<path fill="#FFFFFF" d="M9.482,139.308c0-5.567,0.979-11.115,2.937-16.642c1.958-5.525,4.807-10.462,8.549-14.815
		c3.74-4.35,8.354-7.896,13.835-10.638c5.482-2.741,11.703-4.111,18.666-4.111c8.266,0,15.336,1.872,21.21,5.612
		c5.874,3.743,10.202,8.615,12.987,14.619l-7.179,4.438c-1.481-3.045-3.286-5.612-5.417-7.701c-2.133-2.088-4.417-3.785-6.853-5.09
		c-2.437-1.306-4.96-2.24-7.57-2.807c-2.61-0.565-5.178-0.848-7.701-0.848c-5.57,0-10.487,1.132-14.749,3.394
		c-4.265,2.264-7.854,5.221-10.769,8.875c-2.917,3.655-5.113,7.767-6.591,12.335c-1.481,4.568-2.219,9.202-2.219,13.901
		c0,5.135,0.892,10.05,2.676,14.75c1.783,4.699,4.22,8.855,7.31,12.465c3.088,3.611,6.742,6.484,10.964,8.615
		c4.22,2.133,8.811,3.197,13.771,3.197c2.611,0,5.286-0.326,8.027-0.979s5.395-1.697,7.962-3.133
		c2.566-1.436,4.938-3.219,7.114-5.352c2.174-2.131,4.001-4.719,5.482-7.766l7.571,3.914c-1.481,3.482-3.569,6.549-6.266,9.203
		c-2.698,2.654-5.7,4.895-9.006,6.723c-3.308,1.826-6.81,3.219-10.507,4.176c-3.7,0.957-7.332,1.436-10.899,1.436
		c-6.353,0-12.184-1.391-17.49-4.176c-5.309-2.785-9.877-6.416-13.705-10.9c-3.83-4.48-6.81-9.57-8.941-15.27
		C10.547,151.035,9.482,145.227,9.482,139.308z"/>
	<path fill="#FFFFFF" d="M124.604,187.604c-7.397,0-12.901-2.459-16.511-7.375c-3.612-4.916-5.417-12.248-5.417-21.994v-39.94h8.876
		v38.374c0,15.402,5.264,23.104,15.793,23.104c2.61,0,5.176-0.436,7.701-1.305c2.523-0.869,4.85-2.133,6.983-3.787
		c2.131-1.65,4.046-3.609,5.743-5.873c1.697-2.262,3.067-4.828,4.111-7.701v-42.812h8.875v56.517c0,2.438,1.044,3.656,3.133,3.656
		v7.83c-1.044,0.174-1.893,0.262-2.545,0.262c-0.652,0-1.109,0-1.37,0c-2.089-0.088-3.786-0.826-5.091-2.219
		c-1.305-1.391-1.958-3.264-1.958-5.613v-7.832c-2.959,5.311-6.983,9.422-12.073,12.336
		C135.764,186.146,130.347,187.604,124.604,187.604z"/>
	<path fill="#FFFFFF" d="M181.251,91.014h8.875v79.88c0,2.525,0.695,4.504,2.088,5.939c1.391,1.436,3.349,2.154,5.874,2.154
		c0.957,0,2.088-0.131,3.394-0.393c1.306-0.26,2.523-0.607,3.655-1.043l1.566,7.178c-1.654,0.697-3.677,1.264-6.069,1.697
		c-2.395,0.434-4.46,0.652-6.2,0.652c-4.091,0-7.309-1.152-9.659-3.459c-2.35-2.305-3.524-5.547-3.524-9.723V91.014z"/>
	<path fill="#FFFFFF" d="M248.992,183.035c-0.522,0.26-1.285,0.609-2.284,1.043c-1.001,0.438-2.153,0.871-3.458,1.305
		c-1.306,0.438-2.786,0.828-4.438,1.176c-1.654,0.346-3.394,0.521-5.221,0.521c-1.915,0-3.742-0.26-5.482-0.783
		c-1.742-0.521-3.263-1.324-4.568-2.414c-1.305-1.088-2.35-2.457-3.133-4.111c-0.783-1.652-1.174-3.566-1.174-5.744v-48.685h-9.398
		v-7.048h9.398V95.321h8.875v22.973h15.663v7.048h-15.663v46.207c0.173,2.523,1.064,4.371,2.676,5.547
		c1.609,1.174,3.459,1.762,5.547,1.762c2.523,0,4.742-0.412,6.657-1.24c1.913-0.826,3.133-1.412,3.655-1.762L248.992,183.035z"/>
	<path fill="#FFFFFF" d="M260.085,104.066V91.014h8.875v13.052H260.085z M260.085,186.297v-68.003h8.875v68.003H260.085z"/>
	<path fill="#FFFFFF" d="M308.9,186.297l-27.671-68.003h9.137l23.364,59.78l23.494-59.78h8.615l-27.671,68.003H308.9z"/>
	<path fill="#FFFFFF" d="M373.51,187.604c-3.22,0-6.2-0.545-8.941-1.633c-2.741-1.086-5.135-2.588-7.179-4.502
		c-2.046-1.914-3.635-4.154-4.764-6.723c-1.132-2.566-1.697-5.33-1.697-8.289c0-2.957,0.696-5.697,2.088-8.223
		c1.391-2.523,3.349-4.699,5.874-6.526c2.522-1.827,5.525-3.241,9.006-4.242c3.479-1,7.31-1.501,11.486-1.501
		c3.479,0,7.003,0.306,10.573,0.914c3.567,0.61,6.742,1.48,9.528,2.61v-6.135c0-6.004-1.697-10.768-5.091-14.292
		c-3.394-3.524-8.092-5.286-14.097-5.286c-3.481,0-7.048,0.697-10.703,2.088c-3.655,1.393-7.354,3.394-11.095,6.004l-3.133-5.874
		c8.788-5.917,17.315-8.875,25.583-8.875c8.527,0,15.227,2.394,20.101,7.179c4.872,4.787,7.309,11.401,7.309,19.84v30.673
		c0,2.438,1.087,3.656,3.264,3.656v7.83c-1.481,0.262-2.611,0.393-3.395,0.393c-2.264,0-4.025-0.566-5.286-1.697
		c-1.262-1.131-1.937-2.695-2.023-4.699l-0.261-5.352c-3.133,4.092-7.071,7.225-11.812,9.398
		C384.103,186.514,378.992,187.604,373.51,187.604z M375.599,180.814c4.611,0,8.854-0.867,12.726-2.609
		c3.871-1.74,6.808-4.047,8.811-6.918c0.783-0.783,1.371-1.631,1.762-2.545s0.587-1.762,0.587-2.545v-11.096
		c-2.959-1.129-6.027-2-9.202-2.61c-3.177-0.607-6.418-0.914-9.724-0.914c-6.265,0-11.355,1.305-15.271,3.917
		c-3.916,2.609-5.874,6.049-5.874,10.311c0,2.088,0.412,4.047,1.24,5.873c0.826,1.828,1.958,3.416,3.394,4.766
		c1.436,1.35,3.153,2.414,5.156,3.197C371.204,180.424,373.335,180.814,375.599,180.814z"/>
	<path fill="#FFFFFF" d="M459.657,183.035c-0.522,0.26-1.285,0.609-2.284,1.043c-1.002,0.438-2.154,0.871-3.459,1.305
		c-1.306,0.438-2.786,0.828-4.438,1.176c-1.653,0.346-3.394,0.521-5.221,0.521c-1.915,0-3.742-0.26-5.481-0.783
		c-1.742-0.521-3.264-1.324-4.569-2.414c-1.305-1.088-2.349-2.457-3.132-4.111c-0.783-1.652-1.175-3.566-1.175-5.744v-48.685h-9.398
		v-7.048h9.398V95.321h8.876v22.973h15.662v7.048h-15.662v46.207c0.173,2.523,1.064,4.371,2.676,5.547
		c1.608,1.174,3.458,1.762,5.547,1.762c2.522,0,4.741-0.412,6.656-1.24c1.913-0.826,3.133-1.412,3.655-1.762L459.657,183.035z"/>
	<path fill="#FFFFFF" d="M498.424,187.604c-4.96,0-9.508-0.938-13.64-2.807c-4.134-1.871-7.724-4.438-10.769-7.701
		c-3.047-3.264-5.416-7.025-7.113-11.291c-1.697-4.262-2.545-8.83-2.545-13.705c0-4.784,0.848-9.288,2.545-13.509
		c1.697-4.22,4.046-7.917,7.048-11.095c3.003-3.175,6.592-5.698,10.769-7.57c4.177-1.87,8.7-2.806,13.575-2.806
		c4.96,0,9.506,0.936,13.64,2.806c4.132,1.872,7.679,4.417,10.638,7.636c2.957,3.22,5.264,6.918,6.918,11.095
		c1.651,4.177,2.479,8.615,2.479,13.313c0,0.698,0,1.393,0,2.087c0,0.699-0.045,1.176-0.13,1.438h-58.215
		c0.262,3.654,1.109,7.027,2.546,10.115c1.436,3.09,3.283,5.766,5.547,8.027c2.262,2.264,4.85,4.025,7.767,5.285
		c2.914,1.264,6.024,1.893,9.332,1.893c2.175,0,4.351-0.303,6.526-0.912c2.174-0.609,4.177-1.436,6.004-2.48
		c1.828-1.045,3.479-2.328,4.96-3.852c1.479-1.521,2.611-3.197,3.395-5.023l7.7,2.088c-1.044,2.525-2.524,4.809-4.438,6.852
		c-1.915,2.047-4.134,3.83-6.657,5.352c-2.524,1.523-5.309,2.699-8.354,3.525C504.905,187.189,501.73,187.604,498.424,187.604z
		 M523.485,148.706c-0.262-3.655-1.11-6.983-2.546-9.985c-1.436-3.002-3.263-5.59-5.481-7.767c-2.22-2.174-4.787-3.871-7.701-5.09
		c-2.917-1.218-6.026-1.827-9.333-1.827c-3.308,0-6.44,0.609-9.397,1.827c-2.959,1.22-5.547,2.917-7.767,5.09
		c-2.219,2.176-4.003,4.787-5.352,7.832c-1.35,3.047-2.153,6.353-2.414,9.92H523.485z"/>
	<path fill="#FFFFFF" d="M666.275,186.297v-76.096l-33.806,58.867h-5.352l-33.806-58.867v76.096h-9.137V93.625h9.397l36.155,63.436
		l36.417-63.436h9.267v92.672H666.275z"/>
	<path fill="#FFFFFF" d="M725.274,187.604c-4.96,0-9.508-0.938-13.64-2.807c-4.134-1.871-7.724-4.438-10.769-7.701
		c-3.047-3.264-5.416-7.025-7.113-11.291c-1.697-4.262-2.545-8.83-2.545-13.705c0-4.784,0.848-9.288,2.545-13.509
		c1.697-4.22,4.046-7.917,7.048-11.095c3.003-3.175,6.592-5.698,10.769-7.57c4.177-1.87,8.7-2.806,13.575-2.806
		c4.96,0,9.506,0.936,13.64,2.806c4.132,1.872,7.679,4.417,10.638,7.636c2.957,3.22,5.264,6.918,6.918,11.095
		c1.651,4.177,2.479,8.615,2.479,13.313c0,0.698,0,1.393,0,2.087c0,0.699-0.045,1.176-0.13,1.438h-58.215
		c0.262,3.654,1.109,7.027,2.546,10.115c1.436,3.09,3.283,5.766,5.547,8.027c2.262,2.264,4.85,4.025,7.767,5.285
		c2.914,1.264,6.024,1.893,9.332,1.893c2.175,0,4.351-0.303,6.526-0.912c2.174-0.609,4.177-1.436,6.004-2.48
		c1.828-1.045,3.479-2.328,4.96-3.852c1.479-1.521,2.611-3.197,3.395-5.023l7.7,2.088c-1.044,2.525-2.524,4.809-4.438,6.852
		c-1.915,2.047-4.134,3.83-6.657,5.352c-2.524,1.523-5.309,2.699-8.354,3.525C731.756,187.189,728.581,187.604,725.274,187.604z
		 M750.336,148.706c-0.262-3.655-1.11-6.983-2.546-9.985c-1.436-3.002-3.263-5.59-5.481-7.767c-2.22-2.174-4.787-3.871-7.701-5.09
		c-2.917-1.218-6.026-1.827-9.333-1.827c-3.308,0-6.44,0.609-9.397,1.827c-2.959,1.22-5.547,2.917-7.767,5.09
		c-2.219,2.176-4.003,4.787-5.352,7.832c-1.35,3.047-2.153,6.353-2.414,9.92H750.336z"/>
</g>
<g>
</g>
<g>
</g>
<g>
</g>
<g>
</g>
<g>
</g>
<g>
</g>
<g>
</g>
<g>
</g>
<g>
</g>
<g>
</g>
<g>
</g>
<g>
</g>
<g>
</g>
<g>
</g>
<g>
</g>
</svg>
